<?xml version="1.0" encoding="us-ascii" standalone="no"?><svg xmlns="http://www.w3.org/2000/svg" xmlns:xlink="http://www.w3.org/1999/xlink" contentStyleType="text/css" height="572px" preserveAspectRatio="none" style="width:1308px;height:572px;background:#FFFFFF;" version="1.1" viewBox="0 0 1308 572" width="1308px" zoomAndPan="magnify"><defs/><g><!--class Timestamp--><g id="elem_Timestamp"><rect codeLine="7" fill="#F1F1F1" height="99.4844" id="Timestamp" rx="2.5" ry="2.5" style="stroke:#181818;stroke-width:0.5;" width="394" x="155" y="132"/><text fill="#000000" font-family="sans-serif" font-size="14" lengthAdjust="spacing" textLength="77" x="313.5" y="149.9951">Timestamp</text><line style="stroke:#181818;stroke-width:0.5;" x1="156" x2="548" y1="158.2969" y2="158.2969"/><ellipse cx="166" cy="171.9453" fill="#84BE84" rx="3" ry="3" style="stroke:#038048;stroke-width:1.0;"/><text fill="#000000" font-family="sans-serif" font-size="14" lengthAdjust="spacing" textLength="161" x="175" y="175.292">nanoseconds(): int64_t</text><ellipse cx="166" cy="188.2422" fill="#84BE84" rx="3" ry="3" style="stroke:#038048;stroke-width:1.0;"/><text fill="#000000" font-family="sans-serif" font-size="14" lengthAdjust="spacing" textLength="118" x="175" y="191.5889">to_string(): string</text><ellipse cx="166" cy="204.5391" fill="#84BE84" rx="3" ry="3" style="stroke:#038048;stroke-width:1.0;"/><text fill="#000000" font-family="sans-serif" font-size="14" lengthAdjust="spacing" text-decoration="underline" textLength="368" x="175" y="207.8857">from_string(string timestamp): optional&lt;Timestamp&gt;</text><ellipse cx="166" cy="220.8359" fill="#84BE84" rx="3" ry="3" style="stroke:#038048;stroke-width:1.0;"/><text fill="#000000" font-family="sans-serif" font-size="14" lengthAdjust="spacing" text-decoration="underline" textLength="125" x="175" y="224.1826">now(): Timestamp</text></g><!--class GidValue--><g id="elem_GidValue"><rect codeLine="14" fill="#F1F1F1" height="64.5625" id="GidValue" rx="2.5" ry="2.5" style="stroke:#181818;stroke-width:0.5;" width="68" x="746" y="7"/><text fill="#000000" font-family="sans-serif" font-size="12" font-style="italic" lengthAdjust="spacing" textLength="62" x="749" y="23.1387">&#171;typedef&#187;</text><text fill="#000000" font-family="sans-serif" font-size="14" lengthAdjust="spacing" textLength="61" x="749.5" y="38.9639">GidValue</text><line style="stroke:#181818;stroke-width:0.5;" x1="747" x2="813" y1="47.2656" y2="47.2656"/><text fill="#000000" font-family="sans-serif" font-size="14" lengthAdjust="spacing" textLength="56" x="752" y="64.2607">uint32_t</text></g><!--class Gid--><g id="elem_Gid"><rect codeLine="17" fill="#F1F1F1" height="99.4844" id="Gid" rx="2.5" ry="2.5" style="stroke:#181818;stroke-width:0.5;" width="288" x="636" y="132"/><text fill="#000000" font-family="sans-serif" font-size="14" lengthAdjust="spacing" textLength="23" x="768.5" y="149.9951">Gid</text><line style="stroke:#181818;stroke-width:0.5;" x1="637" x2="923" y1="158.2969" y2="158.2969"/><ellipse cx="647" cy="171.9453" fill="#84BE84" rx="3" ry="3" style="stroke:#038048;stroke-width:1.0;"/><text fill="#000000" font-family="sans-serif" font-size="14" lengthAdjust="spacing" textLength="116" x="656" y="175.292">value(): GidValue</text><ellipse cx="647" cy="188.2422" fill="#84BE84" rx="3" ry="3" style="stroke:#038048;stroke-width:1.0;"/><text fill="#000000" font-family="sans-serif" font-size="14" lengthAdjust="spacing" textLength="118" x="656" y="191.5889">to_string(): string</text><ellipse cx="647" cy="204.5391" fill="#84BE84" rx="3" ry="3" style="stroke:#038048;stroke-width:1.0;"/><text fill="#000000" font-family="sans-serif" font-size="14" lengthAdjust="spacing" text-decoration="underline" textLength="262" x="656" y="207.8857">from_string(string gid): optional&lt;Gid&gt;</text><ellipse cx="647" cy="220.8359" fill="#84BE84" rx="3" ry="3" style="stroke:#038048;stroke-width:1.0;"/><text fill="#000000" font-family="sans-serif" font-size="14" lengthAdjust="spacing" text-decoration="underline" textLength="99" x="656" y="224.1826">new_gid(): Gid</text></g><!--class SequenceNumber--><g id="elem_SequenceNumber"><rect codeLine="25" fill="#F1F1F1" height="64.5625" id="SequenceNumber" rx="2.5" ry="2.5" style="stroke:#181818;stroke-width:0.5;" width="132" x="985" y="149"/><text fill="#000000" font-family="sans-serif" font-size="12" font-style="italic" lengthAdjust="spacing" textLength="62" x="1020" y="165.1387">&#171;typedef&#187;</text><text fill="#000000" font-family="sans-serif" font-size="14" lengthAdjust="spacing" textLength="126" x="988" y="180.9639">SequenceNumber</text><line style="stroke:#181818;stroke-width:0.5;" x1="986" x2="1116" y1="189.2656" y2="189.2656"/><text fill="#000000" font-family="sans-serif" font-size="14" lengthAdjust="spacing" textLength="47" x="991" y="206.2607">int64_t</text></g><!--class CommunicationInfo--><g id="elem_CommunicationInfo"><rect codeLine="30" fill="#F1F1F1" height="99.4844" id="CommunicationInfo" rx="2.5" ry="2.5" style="stroke:#181818;stroke-width:0.5;" width="690" x="7" y="291"/><text fill="#000000" font-family="sans-serif" font-size="14" lengthAdjust="spacing" textLength="133" x="285.5" y="308.9951">CommunicationInfo</text><line style="stroke:#181818;stroke-width:0.5;" x1="8" x2="696" y1="317.2969" y2="317.2969"/><ellipse cx="18" cy="330.9453" fill="#84BE84" rx="3" ry="3" style="stroke:#038048;stroke-width:1.0;"/><text fill="#000000" font-family="sans-serif" font-size="14" lengthAdjust="spacing" textLength="224" x="27" y="334.292">source_timestamp(): Timestamp</text><ellipse cx="18" cy="347.2422" fill="#84BE84" rx="3" ry="3" style="stroke:#038048;stroke-width:1.0;"/><text fill="#000000" font-family="sans-serif" font-size="14" lengthAdjust="spacing" textLength="235" x="27" y="350.5889">received_timestamp(): Timestamp</text><ellipse cx="18" cy="363.5391" fill="#84BE84" rx="3" ry="3" style="stroke:#038048;stroke-width:1.0;"/><text fill="#000000" font-family="sans-serif" font-size="14" lengthAdjust="spacing" textLength="118" x="27" y="366.8857">source_gid(): Gid</text><ellipse cx="18" cy="379.8359" fill="#84BE84" rx="3" ry="3" style="stroke:#038048;stroke-width:1.0;"/><text fill="#000000" font-family="sans-serif" font-size="14" lengthAdjust="spacing" text-decoration="underline" textLength="664" x="27" y="383.1826">from_headers(EmailHeaders headers, string source_gid_header): optional&lt;CommunicationInfo&gt;</text></g><!--class MessageInfo--><g id="elem_MessageInfo"><rect codeLine="39" fill="#F1F1F1" height="99.4844" id="MessageInfo" rx="2.5" ry="2.5" style="stroke:#181818;stroke-width:0.5;" width="462" x="121" y="458.5"/><text fill="#000000" font-family="sans-serif" font-size="14" lengthAdjust="spacing" textLength="88" x="308" y="476.4951">MessageInfo</text><line style="stroke:#181818;stroke-width:0.5;" x1="122" x2="582" y1="484.7969" y2="484.7969"/><ellipse cx="132" cy="498.4453" fill="#84BE84" rx="3" ry="3" style="stroke:#038048;stroke-width:1.0;"/><text fill="#000000" font-family="sans-serif" font-size="14" lengthAdjust="spacing" textLength="224" x="141" y="501.792">source_timestamp(): Timestamp</text><ellipse cx="132" cy="514.7422" fill="#84BE84" rx="3" ry="3" style="stroke:#038048;stroke-width:1.0;"/><text fill="#000000" font-family="sans-serif" font-size="14" lengthAdjust="spacing" textLength="235" x="141" y="518.0889">received_timestamp(): Timestamp</text><ellipse cx="132" cy="531.0391" fill="#84BE84" rx="3" ry="3" style="stroke:#038048;stroke-width:1.0;"/><text fill="#000000" font-family="sans-serif" font-size="14" lengthAdjust="spacing" textLength="134" x="141" y="534.3857">publisher_gid(): Gid</text><ellipse cx="132" cy="547.3359" fill="#84BE84" rx="3" ry="3" style="stroke:#038048;stroke-width:1.0;"/><text fill="#000000" font-family="sans-serif" font-size="14" lengthAdjust="spacing" text-decoration="underline" textLength="436" x="141" y="550.6826">from_headers(EmailHeaders headers): optional&lt;MessageInfo&gt;</text></g><!--class ServiceInfo--><g id="elem_ServiceInfo"><rect codeLine="47" fill="#F1F1F1" height="115.7813" id="ServiceInfo" rx="2.5" ry="2.5" style="stroke:#181818;stroke-width:0.5;" width="449" x="852.5" y="450"/><text fill="#000000" font-family="sans-serif" font-size="14" lengthAdjust="spacing" textLength="75" x="1039.5" y="467.9951">ServiceInfo</text><line style="stroke:#181818;stroke-width:0.5;" x1="853.5" x2="1300.5" y1="476.2969" y2="476.2969"/><ellipse cx="863.5" cy="489.9453" fill="#84BE84" rx="3" ry="3" style="stroke:#038048;stroke-width:1.0;"/><text fill="#000000" font-family="sans-serif" font-size="14" lengthAdjust="spacing" textLength="224" x="872.5" y="493.292">source_timestamp(): Timestamp</text><ellipse cx="863.5" cy="506.2422" fill="#84BE84" rx="3" ry="3" style="stroke:#038048;stroke-width:1.0;"/><text fill="#000000" font-family="sans-serif" font-size="14" lengthAdjust="spacing" textLength="235" x="872.5" y="509.5889">received_timestamp(): Timestamp</text><ellipse cx="863.5" cy="522.5391" fill="#84BE84" rx="3" ry="3" style="stroke:#038048;stroke-width:1.0;"/><text fill="#000000" font-family="sans-serif" font-size="14" lengthAdjust="spacing" textLength="107" x="872.5" y="525.8857">client_gid(): Gid</text><ellipse cx="863.5" cy="538.8359" fill="#84BE84" rx="3" ry="3" style="stroke:#038048;stroke-width:1.0;"/><text fill="#000000" font-family="sans-serif" font-size="14" lengthAdjust="spacing" textLength="276" x="872.5" y="542.1826">sequence_number(): SequenceNumber</text><ellipse cx="863.5" cy="555.1328" fill="#84BE84" rx="3" ry="3" style="stroke:#038048;stroke-width:1.0;"/><text fill="#000000" font-family="sans-serif" font-size="14" lengthAdjust="spacing" text-decoration="underline" textLength="423" x="872.5" y="558.4795">from_headers(EmailHeaders headers): optional&lt;ServiceInfo&gt;</text></g><!--class ServiceRequestId--><g id="elem_ServiceRequestId"><rect codeLine="57" fill="#F1F1F1" height="66.8906" id="ServiceRequestId" rx="2.5" ry="2.5" style="stroke:#181818;stroke-width:0.5;" width="292" x="732" y="307"/><text fill="#000000" font-family="sans-serif" font-size="14" lengthAdjust="spacing" textLength="121" x="817.5" y="324.9951">ServiceRequestId</text><line style="stroke:#181818;stroke-width:0.5;" x1="733" x2="1023" y1="333.2969" y2="333.2969"/><ellipse cx="743" cy="346.9453" fill="none" rx="3" ry="3" style="stroke:#038048;stroke-width:1.0;"/><text fill="#000000" font-family="sans-serif" font-size="14" lengthAdjust="spacing" textLength="266" x="752" y="350.292">sequence_number: SequenceNumber</text><ellipse cx="743" cy="363.2422" fill="none" rx="3" ry="3" style="stroke:#038048;stroke-width:1.0;"/><text fill="#000000" font-family="sans-serif" font-size="14" lengthAdjust="spacing" textLength="97" x="752" y="366.5889">client_gid: Gid</text></g><!--class ServiceRequest--><g id="elem_ServiceRequest"><rect codeLine="64" fill="#F1F1F1" height="66.8906" id="ServiceRequest" rx="2.5" ry="2.5" style="stroke:#181818;stroke-width:0.5;" width="168" x="649" y="474.5"/><text fill="#000000" font-family="sans-serif" font-size="14" lengthAdjust="spacing" textLength="109" x="678.5" y="492.4951">ServiceRequest</text><line style="stroke:#181818;stroke-width:0.5;" x1="650" x2="816" y1="500.7969" y2="500.7969"/><ellipse cx="660" cy="514.4453" fill="none" rx="3" ry="3" style="stroke:#038048;stroke-width:1.0;"/><text fill="#000000" font-family="sans-serif" font-size="14" lengthAdjust="spacing" textLength="142" x="669" y="517.792">id: ServiceRequestId</text><ellipse cx="660" cy="530.7422" fill="none" rx="3" ry="3" style="stroke:#038048;stroke-width:1.0;"/><text fill="#000000" font-family="sans-serif" font-size="14" lengthAdjust="spacing" textLength="102" x="669" y="534.0889">content: string</text></g><!--reverse link GidValue to Gid--><g id="link_GidValue_Gid"><path codeLine="23" d="M780,85.31 C780,100.14 780,116.71 780,131.82 " fill="none" id="GidValue-backto-Gid" style="stroke:#181818;stroke-width:1.0;"/><polygon fill="#181818" points="780,72.27,776,78.27,780,84.27,784,78.27,780,72.27" style="stroke:#181818;stroke-width:1.0;"/></g><!--reverse link Timestamp to CommunicationInfo--><g id="link_Timestamp_CommunicationInfo"><path codeLine="36" d="M352,244.58 C352,260.01 352,276.32 352,290.98 " fill="none" id="Timestamp-backto-CommunicationInfo" style="stroke:#181818;stroke-width:1.0;"/><polygon fill="#181818" points="352,231.32,348,237.32,352,243.32,356,237.32,352,231.32" style="stroke:#181818;stroke-width:1.0;"/><text fill="#000000" font-family="sans-serif" font-size="13" lengthAdjust="spacing" textLength="8" x="343.4375" y="251.4228">2</text></g><!--reverse link Gid to CommunicationInfo--><g id="link_Gid_CommunicationInfo"><path codeLine="37" d="M635.21,235.61 C586.34,253.54 532.08,273.44 484.23,290.99 " fill="none" id="Gid-backto-CommunicationInfo" style="stroke:#181818;stroke-width:1.0;"/><polygon fill="#181818" points="647.51,231.1,640.5,229.4091,636.2429,235.2295,643.253,236.9204,647.51,231.1" style="stroke:#181818;stroke-width:1.0;"/></g><!--reverse link CommunicationInfo to MessageInfo--><g id="link_CommunicationInfo_MessageInfo"><path codeLine="45" d="M352,403.46 C352,421.58 352,441.13 352,458.3 " fill="none" id="CommunicationInfo-backto-MessageInfo" style="stroke:#181818;stroke-width:1.0;"/><polygon fill="#181818" points="352,390.26,348,396.26,352,402.26,356,396.26,352,390.26" style="stroke:#181818;stroke-width:1.0;"/></g><!--reverse link CommunicationInfo to ServiceInfo--><g id="link_CommunicationInfo_ServiceInfo"><path codeLine="54" d="M582.25,392.89 C662.01,410.81 751.97,431.15 834,450 C840.02,451.38 846.12,452.79 852.27,454.21 " fill="none" id="CommunicationInfo-backto-ServiceInfo" style="stroke:#181818;stroke-width:1.0;"/><polygon fill="#181818" points="569.54,390.03,574.5201,395.2452,581.2496,392.6541,576.2695,387.4389,569.54,390.03" style="stroke:#181818;stroke-width:1.0;"/></g><!--reverse link SequenceNumber to ServiceInfo--><g id="link_SequenceNumber_ServiceInfo"><path codeLine="55" d="M1054.59,227.28 C1059.24,285.29 1067.34,386.48 1072.43,449.94 " fill="none" id="SequenceNumber-backto-ServiceInfo" style="stroke:#181818;stroke-width:1.0;"/><polygon fill="#181818" points="1053.54,214.21,1050.0342,220.5116,1054.5027,226.1713,1058.0085,219.8698,1053.54,214.21" style="stroke:#181818;stroke-width:1.0;"/></g><!--reverse link SequenceNumber to ServiceRequestId--><g id="link_SequenceNumber_ServiceRequestId"><path codeLine="61" d="M1006.19,223.16 C977.45,249.24 940.65,282.65 913.85,306.97 " fill="none" id="SequenceNumber-backto-ServiceRequestId" style="stroke:#181818;stroke-width:1.0;"/><polygon fill="#181818" points="1015.99,214.27,1008.8582,215.3363,1007.0994,222.3296,1014.2312,221.2633,1015.99,214.27" style="stroke:#181818;stroke-width:1.0;"/></g><!--reverse link Gid to ServiceRequestId--><g id="link_Gid_ServiceRequestId"><path codeLine="62" d="M817.44,242.48 C831.03,264.25 845.88,288.04 857.47,306.61 " fill="none" id="Gid-backto-ServiceRequestId" style="stroke:#181818;stroke-width:1.0;"/><polygon fill="#181818" points="810.47,231.32,810.2546,238.5279,816.8252,241.4989,817.0406,234.2911,810.47,231.32" style="stroke:#181818;stroke-width:1.0;"/></g><!--reverse link ServiceRequestId to ServiceRequest--><g id="link_ServiceRequestId_ServiceRequest"><path codeLine="68" d="M840.63,384.16 C815.99,412.28 784.21,448.55 761.59,474.37 " fill="none" id="ServiceRequestId-backto-ServiceRequest" style="stroke:#181818;stroke-width:1.0;"/><polygon fill="#181818" points="849.35,374.2,842.3892,376.0836,841.4507,383.2334,848.4115,381.3498,849.35,374.2" style="stroke:#181818;stroke-width:1.0;"/></g><!--SRC=[hLGzRuCm5Dpv5LQcz2DBMdMe8fQgQZEqGrjrHOvv2PQmJVsHA8huxyLWWu4qQgHCWE_ytjtvcOocW80LUe-mrfAkZ0OLPTqg0vs9r2qHAaaEKHIH72k5lYW3fJ4hq2522Drmp8K28dYgfbUFY7BzS9_e6j8YKLLvlh50yrQlhwLW7caUIFkg5LCKcWgEyqNRAaQ7wgafAPkMOcSh1aeyMdgLBpJznha1j5ZeVG4fhEEu4MmgXNVpIc7PKPsLhTrXA_lTvxhOq3JKNvKPAeTTKf5SZr1tA_XwDhEOD_89FmOuWNV3LY37TdpUPNj0Ju8nmod1LiMIhuLpfuIH198swLw4DKC20Rg5z1J7LUbCT5baW5EGQlhCCCrVcm_a5czTSgZRx_XXO2FfSHXHTzwJ-QJEQSItCVw1k7JUG2cyWOldKfXLJbK6yknemW02TJthupEr9WDsDovoIydbxP6S0jT3RyeDPyBhwRHGVrxFJo0my8y40dOqk2b3k1_GXoKhlVHNV-3ag8ykWoQ1yaJBjduxaIFWg20dnxOORQWr2Auh4UsFo6eO61etYtu1]--></g></svg>