<?xml version="1.0" encoding="us-ascii" standalone="no"?><svg xmlns="http://www.w3.org/2000/svg" xmlns:xlink="http://www.w3.org/1999/xlink" contentStyleType="text/css" height="289px" preserveAspectRatio="none" style="width:527px;height:289px;background:#FFFFFF;" version="1.1" viewBox="0 0 527 289" width="527px" zoomAndPan="magnify"><defs/><g><!--class EmailRecipients--><g id="elem_EmailRecipients"><rect codeLine="27" fill="#F1F1F1" height="83.1875" id="EmailRecipients" rx="2.5" ry="2.5" style="stroke:#181818;stroke-width:0.5;" width="166" x="7" y="7"/><text fill="#000000" font-family="sans-serif" font-size="14" lengthAdjust="spacing" textLength="109" x="35.5" y="24.9951">EmailRecipients</text><line style="stroke:#181818;stroke-width:0.5;" x1="8" x2="172" y1="33.2969" y2="33.2969"/><ellipse cx="18" cy="46.9453" fill="none" rx="3" ry="3" style="stroke:#038048;stroke-width:1.0;"/><text fill="#000000" font-family="sans-serif" font-size="14" lengthAdjust="spacing" textLength="129" x="27" y="50.292">to: vector&lt;string&gt;</text><ellipse cx="18" cy="63.2422" fill="none" rx="3" ry="3" style="stroke:#038048;stroke-width:1.0;"/><text fill="#000000" font-family="sans-serif" font-size="14" lengthAdjust="spacing" textLength="131" x="27" y="66.5889">cc: vector&lt;string&gt;</text><ellipse cx="18" cy="79.5391" fill="none" rx="3" ry="3" style="stroke:#038048;stroke-width:1.0;"/><text fill="#000000" font-family="sans-serif" font-size="14" lengthAdjust="spacing" textLength="140" x="27" y="82.8857">bcc: vector&lt;string&gt;</text></g><!--class EmailHeaders--><g id="elem_EmailHeaders"><rect codeLine="33" fill="#F1F1F1" height="64.5625" id="EmailHeaders" rx="2.5" ry="2.5" style="stroke:#181818;stroke-width:0.5;" width="152" x="208" y="16"/><text fill="#000000" font-family="sans-serif" font-size="12" font-style="italic" lengthAdjust="spacing" textLength="62" x="253" y="32.1387">&#171;typedef&#187;</text><text fill="#000000" font-family="sans-serif" font-size="14" lengthAdjust="spacing" textLength="94" x="237" y="47.9639">EmailHeaders</text><line style="stroke:#181818;stroke-width:0.5;" x1="209" x2="359" y1="56.2656" y2="56.2656"/><text fill="#000000" font-family="sans-serif" font-size="14" lengthAdjust="spacing" textLength="140" x="214" y="73.2607">map&lt;string, string&gt;</text></g><!--class EmailContent--><g id="elem_EmailContent"><rect codeLine="37" fill="#F1F1F1" height="66.8906" id="EmailContent" rx="2.5" ry="2.5" style="stroke:#181818;stroke-width:0.5;" width="125" x="395.5" y="15"/><text fill="#000000" font-family="sans-serif" font-size="14" lengthAdjust="spacing" textLength="92" x="412" y="32.9951">EmailContent</text><line style="stroke:#181818;stroke-width:0.5;" x1="396.5" x2="519.5" y1="41.2969" y2="41.2969"/><ellipse cx="406.5" cy="54.9453" fill="none" rx="3" ry="3" style="stroke:#038048;stroke-width:1.0;"/><text fill="#000000" font-family="sans-serif" font-size="14" lengthAdjust="spacing" textLength="99" x="415.5" y="58.292">subject: string</text><ellipse cx="406.5" cy="71.2422" fill="none" rx="3" ry="3" style="stroke:#038048;stroke-width:1.0;"/><text fill="#000000" font-family="sans-serif" font-size="14" lengthAdjust="spacing" textLength="82" x="415.5" y="74.5889">body: string</text></g><!--class EmailData--><g id="elem_EmailData"><rect codeLine="42" fill="#F1F1F1" height="132.0781" id="EmailData" rx="2.5" ry="2.5" style="stroke:#181818;stroke-width:0.5;" width="259" x="154.5" y="150"/><text fill="#000000" font-family="sans-serif" font-size="14" lengthAdjust="spacing" textLength="68" x="250" y="167.9951">EmailData</text><line style="stroke:#181818;stroke-width:0.5;" x1="155.5" x2="412.5" y1="176.2969" y2="176.2969"/><ellipse cx="165.5" cy="189.9453" fill="none" rx="3" ry="3" style="stroke:#038048;stroke-width:1.0;"/><text fill="#000000" font-family="sans-serif" font-size="14" lengthAdjust="spacing" textLength="131" x="174.5" y="193.292">message_id: string</text><ellipse cx="165.5" cy="206.2422" fill="none" rx="3" ry="3" style="stroke:#038048;stroke-width:1.0;"/><text fill="#000000" font-family="sans-serif" font-size="14" lengthAdjust="spacing" textLength="121" x="174.5" y="209.5889">in_reply_to: string</text><ellipse cx="165.5" cy="222.5391" fill="none" rx="3" ry="3" style="stroke:#038048;stroke-width:1.0;"/><text fill="#000000" font-family="sans-serif" font-size="14" lengthAdjust="spacing" textLength="79" x="174.5" y="225.8857">from: string</text><ellipse cx="165.5" cy="238.8359" fill="none" rx="3" ry="3" style="stroke:#038048;stroke-width:1.0;"/><text fill="#000000" font-family="sans-serif" font-size="14" lengthAdjust="spacing" textLength="186" x="174.5" y="242.1826">recipients: EmailRecipients</text><ellipse cx="165.5" cy="255.1328" fill="none" rx="3" ry="3" style="stroke:#038048;stroke-width:1.0;"/><text fill="#000000" font-family="sans-serif" font-size="14" lengthAdjust="spacing" textLength="155" x="174.5" y="258.4795">content: EmailContent</text><ellipse cx="165.5" cy="271.4297" fill="none" rx="3" ry="3" style="stroke:#038048;stroke-width:1.0;"/><text fill="#000000" font-family="sans-serif" font-size="14" lengthAdjust="spacing" textLength="233" x="174.5" y="274.7764">additional_headers: EmailHeaders</text></g><!--reverse link EmailRecipients to EmailData--><g id="link_EmailRecipients_EmailData"><path codeLine="50" d="M148.07,99.04 C166.75,114.98 187.74,132.88 207.53,149.77 " fill="none" id="EmailRecipients-backto-EmailData" style="stroke:#181818;stroke-width:1.0;"/><polygon fill="#181818" points="137.96,90.41,139.9248,97.3483,147.085,98.2032,145.1202,91.2649,137.96,90.41" style="stroke:#181818;stroke-width:1.0;"/></g><!--reverse link EmailContent to EmailData--><g id="link_EmailContent_EmailData"><path codeLine="51" d="M413.95,91.4 C395.31,109.12 373.18,130.18 352.5,149.85 " fill="none" id="EmailContent-backto-EmailData" style="stroke:#181818;stroke-width:1.0;"/><polygon fill="#181818" points="423.62,82.2,416.5159,83.4379,414.9263,90.4716,422.0303,89.2337,423.62,82.2" style="stroke:#181818;stroke-width:1.0;"/></g><!--reverse link EmailHeaders to EmailData--><g id="link_EmailHeaders_EmailData"><path codeLine="52" d="M284,94.06 C284,111.15 284,131.03 284,149.68 " fill="none" id="EmailHeaders-backto-EmailData" style="stroke:#181818;stroke-width:1.0;"/><polygon fill="#181818" points="284,81.02,280,87.02,284,93.02,288,87.02,284,81.02" style="stroke:#181818;stroke-width:1.0;"/></g><!--SRC=[dP8nJyCm48Lt_mflbO2gUnHb0IJO419pvDYNnYZsMVO55A7-Tzp4RUgGYVMpthrtxznf1HoCev4B8g-RWI2mRg46g4ELaDHUzi0OE-oOx4K8_16j1KaQxQjjaVymplbzXu4A7k8uUvp04C1ROI23Bkg_qQihFB4qzCqZeSJ-PgHBA9-0FlfeIulq8pgjajJ1aCjq4zL6k7-5t1qkPiz6wFuTf7OQB8NaILZmhzW9-dBML1EMSXCt6_oK6Ro0KE03BqiQ7IXegsfsYWiaoGFVbiRhK4oMWeMX-On6sNuDgl7l0IRnao2Hb0P244UejSh4sjOUN3_MvvLlUElHPC1VEohMfStTp3cBBFNq8fJIvzyb-hgRUoYoLcBczHNkzljb0PRriF5qQJT_-WK0]--></g></svg>