<?xml version="1.0" encoding="us-ascii" standalone="no"?><svg xmlns="http://www.w3.org/2000/svg" xmlns:xlink="http://www.w3.org/1999/xlink" contentStyleType="text/css" height="897px" preserveAspectRatio="none" style="width:2459px;height:897px;background:#FFFFFF;" version="1.1" viewBox="0 0 2459 897" width="2459px" zoomAndPan="magnify"><defs/><g><!--class EmailSender--><g id="elem_EmailSender"><rect codeLine="7" fill="#F1F1F1" height="66.8906" id="EmailSender" rx="2.5" ry="2.5" style="stroke:#181818;stroke-width:0.5;" width="458" x="1711.5" y="370.5"/><text fill="#000000" font-family="sans-serif" font-size="14" lengthAdjust="spacing" textLength="86" x="1897.5" y="388.4951">EmailSender</text><line style="stroke:#181818;stroke-width:0.5;" x1="1712.5" x2="2168.5" y1="396.7969" y2="396.7969"/><ellipse cx="1722.5" cy="410.4453" fill="#84BE84" rx="3" ry="3" style="stroke:#038048;stroke-width:1.0;"/><text fill="#000000" font-family="sans-serif" font-size="14" font-style="italic" lengthAdjust="spacing" textLength="356" x="1731.5" y="413.792">send(EmailContent, optional&lt;EmailHeaders&gt;): bool</text><ellipse cx="1722.5" cy="426.7422" fill="#84BE84" rx="3" ry="3" style="stroke:#038048;stroke-width:1.0;"/><text fill="#000000" font-family="sans-serif" font-size="14" font-style="italic" lengthAdjust="spacing" textLength="432" x="1731.5" y="430.0889">reply(EmailContent, EmailData, optional&lt;EmailHeaders&gt;): bool</text></g><!--class EmailReceiver--><g id="elem_EmailReceiver"><rect codeLine="12" fill="#F1F1F1" height="66.8906" id="EmailReceiver" rx="2.5" ry="2.5" style="stroke:#181818;stroke-width:0.5;" width="451" x="774" y="7"/><text fill="#000000" font-family="sans-serif" font-size="14" lengthAdjust="spacing" textLength="96" x="951.5" y="24.9951">EmailReceiver</text><line style="stroke:#181818;stroke-width:0.5;" x1="775" x2="1224" y1="33.2969" y2="33.2969"/><ellipse cx="785" cy="46.9453" fill="#84BE84" rx="3" ry="3" style="stroke:#038048;stroke-width:1.0;"/><text fill="#000000" font-family="sans-serif" font-size="14" font-style="italic" lengthAdjust="spacing" textLength="425" x="794" y="50.292">get_email(nanoseconds polling_period): optional&lt;EmailData&gt;</text><ellipse cx="785" cy="63.2422" fill="#84BE84" rx="3" ry="3" style="stroke:#038048;stroke-width:1.0;"/><text fill="#000000" font-family="sans-serif" font-size="14" lengthAdjust="spacing" textLength="79" x="794" y="66.5889">shutdown()</text></g><!--class PollingManager--><g id="elem_PollingManager"><rect codeLine="18" fill="#F1F1F1" height="140.0781" id="PollingManager" rx="2.5" ry="2.5" style="stroke:#181818;stroke-width:0.5;" width="352" x="823.5" y="134"/><text fill="#000000" font-family="sans-serif" font-size="14" lengthAdjust="spacing" textLength="105" x="947" y="151.9951">PollingManager</text><line style="stroke:#181818;stroke-width:0.5;" x1="824.5" x2="1174.5" y1="160.2969" y2="160.2969"/><rect fill="none" height="6" style="stroke:#C82930;stroke-width:1.0;" width="6" x="831.5" y="170.9453"/><text fill="#000000" font-family="sans-serif" font-size="14" lengthAdjust="spacing" textLength="45" x="843.5" y="177.292">thread</text><line style="stroke:#181818;stroke-width:0.5;" x1="824.5" x2="1174.5" y1="184.5938" y2="184.5938"/><rect fill="#F24D5C" height="6" style="stroke:#C82930;stroke-width:1.0;" width="6" x="831.5" y="195.2422"/><text fill="#000000" font-family="sans-serif" font-size="14" lengthAdjust="spacing" textLength="326" x="843.5" y="201.5889">handlers: vector&lt;function&lt;void (EmailData)&gt;&gt;</text><rect fill="#F24D5C" height="6" style="stroke:#C82930;stroke-width:1.0;" width="6" x="831.5" y="211.5391"/><text fill="#000000" font-family="sans-serif" font-size="14" lengthAdjust="spacing" textLength="86" x="843.5" y="217.8857">poll_thread()</text><ellipse cx="834.5" cy="230.8359" fill="#84BE84" rx="3" ry="3" style="stroke:#038048;stroke-width:1.0;"/><text fill="#000000" font-family="sans-serif" font-size="14" lengthAdjust="spacing" textLength="41" x="843.5" y="234.1826">start()</text><ellipse cx="834.5" cy="247.1328" fill="#84BE84" rx="3" ry="3" style="stroke:#038048;stroke-width:1.0;"/><text fill="#000000" font-family="sans-serif" font-size="14" lengthAdjust="spacing" textLength="79" x="843.5" y="250.4795">shutdown()</text><ellipse cx="834.5" cy="263.4297" fill="#84BE84" rx="3" ry="3" style="stroke:#038048;stroke-width:1.0;"/><text fill="#000000" font-family="sans-serif" font-size="14" lengthAdjust="spacing" textLength="312" x="843.5" y="266.7764">register_handler(function&lt;void (EmailData)&gt;)</text></g><!--class EmailHandler--><g id="elem_EmailHandler"><rect codeLine="28" fill="#F1F1F1" height="66.8906" id="EmailHandler" rx="2.5" ry="2.5" style="stroke:#181818;stroke-width:0.5;" width="348" x="264.5" y="170.5"/><text fill="#000000" font-family="sans-serif" font-size="14" font-style="italic" lengthAdjust="spacing" textLength="90" x="393.5" y="188.4951">EmailHandler</text><line style="stroke:#181818;stroke-width:0.5;" x1="265.5" x2="611.5" y1="196.7969" y2="196.7969"/><ellipse cx="275.5" cy="210.4453" fill="#84BE84" rx="3" ry="3" style="stroke:#038048;stroke-width:1.0;"/><text fill="#000000" font-family="sans-serif" font-size="14" font-style="italic" lengthAdjust="spacing" textLength="322" x="284.5" y="213.792">register_handler(shared_ptr&lt;PollingManager&gt;)</text><ellipse cx="275.5" cy="226.7422" fill="#84BE84" rx="3" ry="3" style="stroke:#038048;stroke-width:1.0;"/><text fill="#000000" font-family="sans-serif" font-size="14" font-style="italic" lengthAdjust="spacing" textLength="125" x="284.5" y="230.0889">handle(EmailData)</text></g><!--class SubscriptionHandler--><g id="elem_SubscriptionHandler"><rect codeLine="34" fill="#F1F1F1" height="107.4844" id="SubscriptionHandler" rx="2.5" ry="2.5" style="stroke:#181818;stroke-width:0.5;" width="685" x="7" y="350.5"/><text fill="#000000" font-family="sans-serif" font-size="14" lengthAdjust="spacing" textLength="139" x="280" y="368.4951">SubscriptionHandler</text><line style="stroke:#181818;stroke-width:0.5;" x1="8" x2="691" y1="376.7969" y2="376.7969"/><rect fill="none" height="6" style="stroke:#C82930;stroke-width:1.0;" width="6" x="15" y="387.4453"/><text fill="#000000" font-family="sans-serif" font-size="14" lengthAdjust="spacing" textLength="456" x="27" y="393.792">subscriptions: map&lt;string, queue&lt;pair&lt;string, MessageInfo&gt;&gt;&gt;</text><line style="stroke:#181818;stroke-width:0.5;" x1="8" x2="691" y1="401.0938" y2="401.0938"/><ellipse cx="18" cy="414.7422" fill="#84BE84" rx="3" ry="3" style="stroke:#038048;stroke-width:1.0;"/><text fill="#000000" font-family="sans-serif" font-size="14" lengthAdjust="spacing" textLength="659" x="27" y="418.0889">register_subscription(string topic_name, queue&lt;pair&lt;string, MessageInfo&gt;&gt; message_queue)</text><ellipse cx="18" cy="431.0391" fill="#84BE84" rx="3" ry="3" style="stroke:#038048;stroke-width:1.0;"/><text fill="#000000" font-family="sans-serif" font-size="14" font-style="italic" lengthAdjust="spacing" textLength="322" x="27" y="434.3857">register_handler(shared_ptr&lt;PollingManager&gt;)</text><ellipse cx="18" cy="447.3359" fill="#84BE84" rx="3" ry="3" style="stroke:#038048;stroke-width:1.0;"/><text fill="#000000" font-family="sans-serif" font-size="14" font-style="italic" lengthAdjust="spacing" textLength="125" x="27" y="450.6826">handle(EmailData)</text></g><!--class ServiceHandler--><g id="elem_ServiceHandler"><rect codeLine="43" fill="#F1F1F1" height="140.0781" id="ServiceHandler" rx="2.5" ry="2.5" style="stroke:#181818;stroke-width:0.5;" width="720" x="727.5" y="334"/><text fill="#000000" font-family="sans-serif" font-size="14" lengthAdjust="spacing" textLength="103" x="1036" y="351.9951">ServiceHandler</text><line style="stroke:#181818;stroke-width:0.5;" x1="728.5" x2="1446.5" y1="360.2969" y2="360.2969"/><rect fill="none" height="6" style="stroke:#C82930;stroke-width:1.0;" width="6" x="735.5" y="370.9453"/><text fill="#000000" font-family="sans-serif" font-size="14" lengthAdjust="spacing" textLength="663" x="747.5" y="377.292">clients: map&lt;GidValue, shared_ptr&lt;map&lt;SequenceNumber, pair&lt;EmailData, ServiceInfo&gt;&gt;&gt;&gt;</text><rect fill="none" height="6" style="stroke:#C82930;stroke-width:1.0;" width="6" x="735.5" y="387.2422"/><text fill="#000000" font-family="sans-serif" font-size="14" lengthAdjust="spacing" textLength="528" x="747.5" y="393.5889">servers: map&lt;string, shared_ptr&lt;queue&lt;pair&lt;EmailData, ServiceInfo&gt;&gt;&gt;&gt;</text><line style="stroke:#181818;stroke-width:0.5;" x1="728.5" x2="1446.5" y1="400.8906" y2="400.8906"/><ellipse cx="738.5" cy="414.5391" fill="#84BE84" rx="3" ry="3" style="stroke:#038048;stroke-width:1.0;"/><text fill="#000000" font-family="sans-serif" font-size="14" lengthAdjust="spacing" textLength="689" x="747.5" y="417.8857">register_service_client(Gid, map&lt;SequenceNumber, pair&lt;EmailData, ServiceInfo&gt;&gt; response_map)</text><ellipse cx="738.5" cy="430.8359" fill="#84BE84" rx="3" ry="3" style="stroke:#038048;stroke-width:1.0;"/><text fill="#000000" font-family="sans-serif" font-size="14" lengthAdjust="spacing" textLength="694" x="747.5" y="434.1826">register_service_server(string service_name, queue&lt;pair&lt;EmailData, ServiceInfo&gt;&gt; request_queue)</text><ellipse cx="738.5" cy="447.1328" fill="#84BE84" rx="3" ry="3" style="stroke:#038048;stroke-width:1.0;"/><text fill="#000000" font-family="sans-serif" font-size="14" font-style="italic" lengthAdjust="spacing" textLength="322" x="747.5" y="450.4795">register_handler(shared_ptr&lt;PollingManager&gt;)</text><ellipse cx="738.5" cy="463.4297" fill="#84BE84" rx="3" ry="3" style="stroke:#038048;stroke-width:1.0;"/><text fill="#000000" font-family="sans-serif" font-size="14" font-style="italic" lengthAdjust="spacing" textLength="125" x="747.5" y="466.7764">handle(EmailData)</text></g><!--class GidObject--><g id="elem_GidObject"><rect codeLine="55" fill="#F1F1F1" height="74.8906" id="GidObject" rx="2.5" ry="2.5" style="stroke:#181818;stroke-width:0.5;" width="119" x="2116" y="166.5"/><text fill="#000000" font-family="sans-serif" font-size="14" lengthAdjust="spacing" textLength="68" x="2141.5" y="184.4951">GidObject</text><line style="stroke:#181818;stroke-width:0.5;" x1="2117" x2="2234" y1="192.7969" y2="192.7969"/><rect fill="none" height="6" style="stroke:#C82930;stroke-width:1.0;" width="6" x="2124" y="203.4453"/><text fill="#000000" font-family="sans-serif" font-size="14" lengthAdjust="spacing" textLength="53" x="2136" y="209.792">gid: Gid</text><line style="stroke:#181818;stroke-width:0.5;" x1="2117" x2="2234" y1="217.0938" y2="217.0938"/><ellipse cx="2127" cy="230.7422" fill="#84BE84" rx="3" ry="3" style="stroke:#038048;stroke-width:1.0;"/><text fill="#000000" font-family="sans-serif" font-size="14" lengthAdjust="spacing" textLength="93" x="2136" y="234.0889">get_gid(): Gid</text></g><!--class NamedObject--><g id="elem_NamedObject"><rect codeLine="59" fill="#F1F1F1" height="91.1875" id="NamedObject" rx="2.5" ry="2.5" style="stroke:#181818;stroke-width:0.5;" width="203" x="1611" y="158.5"/><text fill="#000000" font-family="sans-serif" font-size="14" lengthAdjust="spacing" textLength="94" x="1665.5" y="176.4951">NamedObject</text><line style="stroke:#181818;stroke-width:0.5;" x1="1612" x2="1813" y1="184.7969" y2="184.7969"/><rect fill="none" height="6" style="stroke:#C82930;stroke-width:1.0;" width="6" x="1619" y="195.4453"/><text fill="#000000" font-family="sans-serif" font-size="14" lengthAdjust="spacing" textLength="137" x="1631" y="201.792">object_name: string</text><line style="stroke:#181818;stroke-width:0.5;" x1="1612" x2="1813" y1="209.0938" y2="209.0938"/><polygon fill="#FFFF44" points="1622,217.7422,1626,221.7422,1622,225.7422,1618,221.7422" style="stroke:#B38D22;stroke-width:1.0;"/><text fill="#000000" font-family="sans-serif" font-size="14" lengthAdjust="spacing" textLength="177" x="1631" y="226.0889">get_object_name(): string</text><polygon fill="#FFFF44" points="1622,234.0391,1626,238.0391,1622,242.0391,1618,238.0391" style="stroke:#B38D22;stroke-width:1.0;"/><text fill="#000000" font-family="sans-serif" font-size="14" font-style="italic" lengthAdjust="spacing" textLength="109" x="1631" y="242.3857">validate_name()</text></g><!--class PubSubObject--><g id="elem_PubSubObject"><rect codeLine="65" fill="#F1F1F1" height="66.8906" id="PubSubObject" rx="2.5" ry="2.5" style="stroke:#181818;stroke-width:0.5;" width="194" x="1482.5" y="370.5"/><text fill="#000000" font-family="sans-serif" font-size="14" lengthAdjust="spacing" textLength="99" x="1530" y="388.4951">PubSubObject</text><line style="stroke:#181818;stroke-width:0.5;" x1="1483.5" x2="1675.5" y1="396.7969" y2="396.7969"/><ellipse cx="1493.5" cy="410.4453" fill="#84BE84" rx="3" ry="3" style="stroke:#038048;stroke-width:1.0;"/><text fill="#000000" font-family="sans-serif" font-size="14" lengthAdjust="spacing" textLength="168" x="1502.5" y="413.792">get_topic_name(): string</text><rect fill="#F24D5C" height="6" style="stroke:#C82930;stroke-width:1.0;" width="6" x="1490.5" y="423.7422"/><text fill="#000000" font-family="sans-serif" font-size="14" font-style="italic" lengthAdjust="spacing" textLength="109" x="1502.5" y="430.0889">validate_name()</text></g><!--class ServiceObject--><g id="elem_ServiceObject"><rect codeLine="72" fill="#F1F1F1" height="66.8906" id="ServiceObject" rx="2.5" ry="2.5" style="stroke:#181818;stroke-width:0.5;" width="209" x="2205" y="370.5"/><text fill="#000000" font-family="sans-serif" font-size="14" lengthAdjust="spacing" textLength="95" x="2262" y="388.4951">ServiceObject</text><line style="stroke:#181818;stroke-width:0.5;" x1="2206" x2="2413" y1="396.7969" y2="396.7969"/><ellipse cx="2216" cy="410.4453" fill="#84BE84" rx="3" ry="3" style="stroke:#038048;stroke-width:1.0;"/><text fill="#000000" font-family="sans-serif" font-size="14" lengthAdjust="spacing" textLength="183" x="2225" y="413.792">get_service_name(): string</text><rect fill="#F24D5C" height="6" style="stroke:#C82930;stroke-width:1.0;" width="6" x="2213" y="423.7422"/><text fill="#000000" font-family="sans-serif" font-size="14" font-style="italic" lengthAdjust="spacing" textLength="109" x="2225" y="430.0889">validate_name()</text></g><!--class Publisher--><g id="elem_Publisher"><rect codeLine="80" fill="#F1F1F1" height="50.5938" id="Publisher" rx="2.5" ry="2.5" style="stroke:#181818;stroke-width:0.5;" width="508" x="1325.5" y="570.5"/><text fill="#000000" font-family="sans-serif" font-size="14" lengthAdjust="spacing" textLength="64" x="1547.5" y="588.4951">Publisher</text><line style="stroke:#181818;stroke-width:0.5;" x1="1326.5" x2="1832.5" y1="596.7969" y2="596.7969"/><ellipse cx="1336.5" cy="610.4453" fill="#84BE84" rx="3" ry="3" style="stroke:#038048;stroke-width:1.0;"/><text fill="#000000" font-family="sans-serif" font-size="14" lengthAdjust="spacing" textLength="482" x="1345.5" y="613.792">publish(string message, optional&lt;EmailHeaders&gt; additional_headers)</text></g><!--class Subscription--><g id="elem_Subscription"><rect codeLine="86" fill="#F1F1F1" height="107.4844" id="Subscription" rx="2.5" ry="2.5" style="stroke:#181818;stroke-width:0.5;" width="469" x="821" y="542.5"/><text fill="#000000" font-family="sans-serif" font-size="14" lengthAdjust="spacing" textLength="86" x="1012.5" y="560.4951">Subscription</text><line style="stroke:#181818;stroke-width:0.5;" x1="822" x2="1289" y1="568.7969" y2="568.7969"/><rect fill="none" height="6" style="stroke:#C82930;stroke-width:1.0;" width="6" x="829" y="579.4453"/><text fill="#000000" font-family="sans-serif" font-size="14" lengthAdjust="spacing" textLength="334" x="841" y="585.792">messages: queue&lt;pair&lt;string, MessageInfo&gt;&gt;</text><line style="stroke:#181818;stroke-width:0.5;" x1="822" x2="1289" y1="593.0938" y2="593.0938"/><ellipse cx="832" cy="606.7422" fill="#84BE84" rx="3" ry="3" style="stroke:#038048;stroke-width:1.0;"/><text fill="#000000" font-family="sans-serif" font-size="14" lengthAdjust="spacing" textLength="145" x="841" y="610.0889">has_message(): bool</text><ellipse cx="832" cy="623.0391" fill="#84BE84" rx="3" ry="3" style="stroke:#038048;stroke-width:1.0;"/><text fill="#000000" font-family="sans-serif" font-size="14" lengthAdjust="spacing" textLength="231" x="841" y="626.3857">get_message(): optional&lt;string&gt;</text><ellipse cx="832" cy="639.3359" fill="#84BE84" rx="3" ry="3" style="stroke:#038048;stroke-width:1.0;"/><text fill="#000000" font-family="sans-serif" font-size="14" lengthAdjust="spacing" textLength="443" x="841" y="642.6826">get_message_with_info(): optional&lt;pair&lt;string, MessageInfo&gt;&gt;</text></g><!--class ServiceClient--><g id="elem_ServiceClient"><rect codeLine="96" fill="#F1F1F1" height="172.6719" id="ServiceClient" rx="2.5" ry="2.5" style="stroke:#181818;stroke-width:0.5;" width="614" x="1272.5" y="718"/><text fill="#000000" font-family="sans-serif" font-size="14" lengthAdjust="spacing" textLength="89" x="1535" y="735.9951">ServiceClient</text><line style="stroke:#181818;stroke-width:0.5;" x1="1273.5" x2="1885.5" y1="744.2969" y2="744.2969"/><rect fill="none" height="6" style="stroke:#C82930;stroke-width:1.0;" width="6" x="1280.5" y="754.9453"/><text fill="#000000" font-family="sans-serif" font-size="14" lengthAdjust="spacing" textLength="471" x="1292.5" y="761.292">responses: map&lt;SequenceNumber, pair&lt;EmailData, ServiceInfo&gt;&gt;</text><line style="stroke:#181818;stroke-width:0.5;" x1="1273.5" x2="1885.5" y1="768.5938" y2="768.5938"/><ellipse cx="1283.5" cy="782.2422" fill="#84BE84" rx="3" ry="3" style="stroke:#038048;stroke-width:1.0;"/><text fill="#000000" font-family="sans-serif" font-size="14" lengthAdjust="spacing" textLength="367" x="1292.5" y="785.5889">send_request(string request, SequenceNumber seq)</text><ellipse cx="1283.5" cy="798.5391" fill="#84BE84" rx="3" ry="3" style="stroke:#038048;stroke-width:1.0;"/><text fill="#000000" font-family="sans-serif" font-size="14" lengthAdjust="spacing" textLength="295" x="1292.5" y="801.8857">send_request(request): SequenceNumber</text><ellipse cx="1283.5" cy="814.8359" fill="#84BE84" rx="3" ry="3" style="stroke:#038048;stroke-width:1.0;"/><text fill="#000000" font-family="sans-serif" font-size="14" lengthAdjust="spacing" textLength="303" x="1292.5" y="818.1826">has_response(SequenceNumber seq): bool</text><ellipse cx="1283.5" cy="831.1328" fill="#84BE84" rx="3" ry="3" style="stroke:#038048;stroke-width:1.0;"/><text fill="#000000" font-family="sans-serif" font-size="14" lengthAdjust="spacing" textLength="147" x="1292.5" y="834.4795">has_response(): bool</text><ellipse cx="1283.5" cy="847.4297" fill="#84BE84" rx="3" ry="3" style="stroke:#038048;stroke-width:1.0;"/><text fill="#000000" font-family="sans-serif" font-size="14" lengthAdjust="spacing" textLength="389" x="1292.5" y="850.7764">get_response(SequenceNumber seq): optional&lt;string&gt;</text><ellipse cx="1283.5" cy="863.7266" fill="#84BE84" rx="3" ry="3" style="stroke:#038048;stroke-width:1.0;"/><text fill="#000000" font-family="sans-serif" font-size="14" lengthAdjust="spacing" textLength="588" x="1292.5" y="867.0732">get_response_with_info(SequenceNumber seq): optional&lt;pair&lt;string, ServiceInfo&gt;&gt;</text><ellipse cx="1283.5" cy="880.0234" fill="#84BE84" rx="3" ry="3" style="stroke:#038048;stroke-width:1.0;"/><text fill="#000000" font-family="sans-serif" font-size="14" lengthAdjust="spacing" textLength="432" x="1292.5" y="883.3701">get_response_with_info(): optional&lt;pair&lt;string, ServiceInfo&gt;&gt;</text></g><!--class ServiceServer--><g id="elem_ServiceServer"><rect codeLine="110" fill="#F1F1F1" height="123.7813" id="ServiceServer" rx="2.5" ry="2.5" style="stroke:#181818;stroke-width:0.5;" width="516" x="1868.5" y="534"/><text fill="#000000" font-family="sans-serif" font-size="14" lengthAdjust="spacing" textLength="94" x="2079.5" y="551.9951">ServiceServer</text><line style="stroke:#181818;stroke-width:0.5;" x1="1869.5" x2="2383.5" y1="560.2969" y2="560.2969"/><rect fill="none" height="6" style="stroke:#C82930;stroke-width:1.0;" width="6" x="1876.5" y="570.9453"/><text fill="#000000" font-family="sans-serif" font-size="14" lengthAdjust="spacing" textLength="340" x="1888.5" y="577.292">requests: queue&lt;pair&lt;EmailData, ServiceInfo&gt;&gt;</text><line style="stroke:#181818;stroke-width:0.5;" x1="1869.5" x2="2383.5" y1="584.5938" y2="584.5938"/><ellipse cx="1879.5" cy="598.2422" fill="#84BE84" rx="3" ry="3" style="stroke:#038048;stroke-width:1.0;"/><text fill="#000000" font-family="sans-serif" font-size="14" lengthAdjust="spacing" textLength="135" x="1888.5" y="601.5889">has_request(): bool</text><ellipse cx="1879.5" cy="614.5391" fill="#84BE84" rx="3" ry="3" style="stroke:#038048;stroke-width:1.0;"/><text fill="#000000" font-family="sans-serif" font-size="14" lengthAdjust="spacing" textLength="291" x="1888.5" y="617.8857">get_request(): optional&lt;ServiceRequest&gt;</text><ellipse cx="1879.5" cy="630.8359" fill="#84BE84" rx="3" ry="3" style="stroke:#038048;stroke-width:1.0;"/><text fill="#000000" font-family="sans-serif" font-size="14" lengthAdjust="spacing" textLength="490" x="1888.5" y="634.1826">get_request_with_info(): optional&lt;pair&lt;ServiceRequest, ServiceInfo&gt;&gt;</text><ellipse cx="1879.5" cy="647.1328" fill="#84BE84" rx="3" ry="3" style="stroke:#038048;stroke-width:1.0;"/><text fill="#000000" font-family="sans-serif" font-size="14" lengthAdjust="spacing" textLength="433" x="1888.5" y="650.4795">send_response(ServiceRequestId request_id, string response)</text></g><!--reverse link EmailReceiver to PollingManager--><g id="link_EmailReceiver_PollingManager"><path codeLine="26" d="M999.5,87.36 C999.5,101.77 999.5,118.02 999.5,133.68 " fill="none" id="EmailReceiver-backto-PollingManager" style="stroke:#181818;stroke-width:1.0;"/><polygon fill="none" points="999.5,74.18,995.5,80.18,999.5,86.18,1003.5,80.18,999.5,74.18" style="stroke:#181818;stroke-width:1.0;"/></g><!--reverse link EmailHandler to SubscriptionHandler--><g id="link_EmailHandler_SubscriptionHandler"><path codeLine="40" d="M415.58,256 C402.54,285 386.25,321.25 373.1,350.5 " fill="none" id="EmailHandler-backto-SubscriptionHandler" style="stroke:#181818;stroke-width:1.0;"/><polygon fill="none" points="409.22,253.07,423.8,237.7,421.99,258.81,409.22,253.07" style="stroke:#181818;stroke-width:1.0;"/></g><!--reverse link PollingManager to SubscriptionHandler--><g id="link_PollingManager_SubscriptionHandler"><path codeLine="41" d="M818.22,260.22 C725.54,288.45 613.33,322.63 521.95,350.47 " fill="none" id="PollingManager-backto-SubscriptionHandler" style="stroke:#181818;stroke-width:1.0;"/><polygon fill="#181818" points="823.17,258.71,813.3941,257.5131,818.388,260.1704,815.7307,265.1642,823.17,258.71" style="stroke:#181818;stroke-width:1.0;"/><text fill="#000000" font-family="sans-serif" font-size="13" lengthAdjust="spacing" textLength="85" x="730.3058" y="257.4745">registers with</text></g><!--reverse link EmailHandler to ServiceHandler--><g id="link_EmailHandler_ServiceHandler"><path codeLine="51" d="M564.68,243.5 C648.79,269.16 761.72,303.61 861.1,333.93 " fill="none" id="EmailHandler-backto-ServiceHandler" style="stroke:#181818;stroke-width:1.0;"/><polygon fill="none" points="562.39,250.12,545.31,237.58,566.48,236.73,562.39,250.12" style="stroke:#181818;stroke-width:1.0;"/></g><!--reverse link PollingManager to ServiceHandler--><g id="link_PollingManager_ServiceHandler"><path codeLine="52" d="M1032.5,279.26 C1040.45,297.13 1048.9,316.16 1056.74,333.79 " fill="none" id="PollingManager-backto-ServiceHandler" style="stroke:#181818;stroke-width:1.0;"/><polygon fill="#181818" points="1030.28,274.25,1030.2743,284.0989,1032.308,278.8202,1037.5867,280.854,1030.28,274.25" style="stroke:#181818;stroke-width:1.0;"/><text fill="#000000" font-family="sans-serif" font-size="13" lengthAdjust="spacing" textLength="85" x="944.0714" y="294.3377">registers with</text></g><!--reverse link GidObject to PubSubObject--><g id="link_GidObject_PubSubObject"><path codeLine="69" d="M2096.18,219.06 C1998.75,237.94 1829.65,275.97 1693.5,334 C1670.41,343.84 1646.41,357.74 1626.43,370.48 " fill="none" id="GidObject-backto-PubSubObject" style="stroke:#181818;stroke-width:1.0;"/><polygon fill="none" points="2094.89,212.18,2115.85,215.32,2097.51,225.94,2094.89,212.18" style="stroke:#181818;stroke-width:1.0;"/></g><!--reverse link NamedObject to PubSubObject--><g id="link_NamedObject_PubSubObject"><path codeLine="70" d="M1671.12,266.61 C1648.09,300.88 1620.36,342.17 1601.48,370.28 " fill="none" id="NamedObject-backto-PubSubObject" style="stroke:#181818;stroke-width:1.0;"/><polygon fill="none" points="1665.36,262.63,1682.32,249.93,1676.98,270.43,1665.36,262.63" style="stroke:#181818;stroke-width:1.0;"/></g><!--reverse link GidObject to ServiceObject--><g id="link_GidObject_ServiceObject"><path codeLine="76" d="M2211.63,258.39 C2235.8,294.11 2266.84,339.96 2287.41,370.36 " fill="none" id="GidObject-backto-ServiceObject" style="stroke:#181818;stroke-width:1.0;"/><polygon fill="none" points="2205.8,262.27,2200.39,241.78,2217.4,254.42,2205.8,262.27" style="stroke:#181818;stroke-width:1.0;"/></g><!--reverse link NamedObject to ServiceObject--><g id="link_NamedObject_ServiceObject"><path codeLine="77" d="M1833.62,229.12 C1931.28,250.63 2071.04,286.13 2187.5,334 C2211.81,343.99 2237.32,357.83 2258.69,370.5 " fill="none" id="NamedObject-backto-ServiceObject" style="stroke:#181818;stroke-width:1.0;"/><polygon fill="none" points="1832.12,235.96,1814.06,224.87,1835.09,222.28,1832.12,235.96" style="stroke:#181818;stroke-width:1.0;"/></g><!--reverse link PubSubObject to Publisher--><g id="link_PubSubObject_Publisher"><path codeLine="83" d="M1579.5,457.87 C1579.5,494.64 1579.5,541.97 1579.5,570.32 " fill="none" id="PubSubObject-backto-Publisher" style="stroke:#181818;stroke-width:1.0;"/><polygon fill="none" points="1572.5,457.66,1579.5,437.66,1586.5,457.66,1572.5,457.66" style="stroke:#181818;stroke-width:1.0;"/></g><!--reverse link EmailSender to Publisher--><g id="link_EmailSender_Publisher"><path codeLine="84" d="M1866.75,443.82 C1794.66,481.76 1687.11,538.36 1626.13,570.46 " fill="none" id="EmailSender-backto-Publisher" style="stroke:#181818;stroke-width:1.0;"/><polygon fill="none" points="1878.44,437.66,1871.2673,436.917,1867.8227,443.2522,1874.9954,443.9952,1878.44,437.66" style="stroke:#181818;stroke-width:1.0;"/></g><!--reverse link PubSubObject to Subscription--><g id="link_PubSubObject_Subscription"><path codeLine="92" d="M1514.2,448.05 C1498.34,457.41 1481.15,466.68 1464.5,474 C1403.15,500.96 1334.06,523.98 1270.37,542.48 " fill="none" id="PubSubObject-backto-Subscription" style="stroke:#181818;stroke-width:1.0;"/><polygon fill="none" points="1510.71,441.98,1531.44,437.55,1518,453.94,1510.71,441.98" style="stroke:#181818;stroke-width:1.0;"/></g><!--reverse link SubscriptionHandler to Subscription--><g id="link_SubscriptionHandler_Subscription"><path codeLine="93" d="M549.67,458.87 C647.05,485.08 763.67,516.46 860.37,542.49 " fill="none" id="SubscriptionHandler-backto-Subscription" style="stroke:#181818;stroke-width:1.0;"/><polygon fill="#181818" points="544.75,457.55,552.4006,463.7522,549.5781,458.8499,554.4804,456.0273,544.75,457.55" style="stroke:#181818;stroke-width:1.0;"/><text fill="#000000" font-family="sans-serif" font-size="13" lengthAdjust="spacing" textLength="85" x="481.2305" y="478.1773">registers with</text></g><!--reverse link ServiceObject to ServiceClient--><g id="link_ServiceObject_ServiceClient"><path codeLine="106" d="M2353.17,453.21 C2397.47,508.1 2452.89,597.92 2402.5,658 C2336.53,736.65 2092.05,772.81 1886.55,789.42 " fill="none" id="ServiceObject-backto-ServiceClient" style="stroke:#181818;stroke-width:1.0;"/><polygon fill="none" points="2347.66,457.53,2340.2,437.7,2358.4,448.55,2347.66,457.53" style="stroke:#181818;stroke-width:1.0;"/></g><!--reverse link Publisher to ServiceClient--><g id="link_Publisher_ServiceClient"><path codeLine="107" d="M1579.5,634.97 C1579.5,658.18 1579.5,688.84 1579.5,717.64 " fill="none" id="Publisher-backto-ServiceClient" style="stroke:#181818;stroke-width:1.0;"/><polygon fill="#181818" points="1579.5,621.91,1575.5,627.91,1579.5,633.91,1583.5,627.91,1579.5,621.91" style="stroke:#181818;stroke-width:1.0;"/></g><!--reverse link ServiceHandler to ServiceClient--><g id="link_ServiceHandler_ServiceClient"><path codeLine="108" d="M860.11,477.04 C837.85,492.52 818.13,511.28 803.5,534 C773.66,580.33 768.3,615.59 803.5,658 C863.57,730.38 1082.28,766.97 1272.26,785.35 " fill="none" id="ServiceHandler-backto-ServiceClient" style="stroke:#181818;stroke-width:1.0;"/><polygon fill="#181818" points="864.3,474.18,854.6076,475.9285,860.164,476.9896,859.103,482.546,864.3,474.18" style="stroke:#181818;stroke-width:1.0;"/><text fill="#000000" font-family="sans-serif" font-size="13" lengthAdjust="spacing" textLength="85" x="751.8997" y="494.2605">registers with</text></g><!--reverse link ServiceObject to ServiceServer--><g id="link_ServiceObject_ServiceServer"><path codeLine="117" d="M2264.08,452.15 C2240.37,476.78 2211.07,507.2 2185.61,533.63 " fill="none" id="ServiceObject-backto-ServiceServer" style="stroke:#181818;stroke-width:1.0;"/><polygon fill="none" points="2259.13,447.21,2278.04,437.66,2269.21,456.92,2259.13,447.21" style="stroke:#181818;stroke-width:1.0;"/></g><!--reverse link EmailSender to ServiceServer--><g id="link_EmailSender_ServiceServer"><path codeLine="118" d="M1981.63,447.02 C2006.53,472.45 2038.72,505.33 2066.42,533.63 " fill="none" id="EmailSender-backto-ServiceServer" style="stroke:#181818;stroke-width:1.0;"/><polygon fill="none" points="1972.47,437.66,1973.8072,444.746,1980.8624,446.2371,1979.5253,439.1511,1972.47,437.66" style="stroke:#181818;stroke-width:1.0;"/></g><!--reverse link ServiceHandler to ServiceServer--><g id="link_ServiceHandler_ServiceServer"><path codeLine="119" d="M1452.67,471.99 C1456.64,472.67 1460.58,473.34 1464.5,474 C1636.12,503 1680.45,501.8 1851.5,534 C1857.03,535.04 1862.61,536.11 1868.24,537.21 " fill="none" id="ServiceHandler-backto-ServiceServer" style="stroke:#181818;stroke-width:1.0;"/><polygon fill="#181818" points="1447.64,471.13,1455.8369,476.5899,1452.5685,471.9728,1457.1855,468.7043,1447.64,471.13" style="stroke:#181818;stroke-width:1.0;"/><text fill="#000000" font-family="sans-serif" font-size="13" lengthAdjust="spacing" textLength="85" x="1455.8186" y="469.4087">registers with</text></g><!--SRC=[nLPHRziW47xthq3TYxqbVo2o_D9DQn_QLOsqLukOQypaW0iuLTNblmy39c0dRgDfsbF27VVTntV7uPeIGB1hrIl2IWcwwHJ8f3vQTw1gJfofeg9g84cIgi5IecyxJ9irC082lIK8eIzIBr9ZlkPC0LCBn5j5ESDDRimtWFLkMMGhjE6yGMzu8vN0bJgOU05jype2CAklME4Bi0uHnKUeWEuzoIse4dfxoZ3Z4YhEY4GjRnhAjcKBWdAYCUDaFO5YJ5VMdIByXQLPdz6bVB10TvZXxP1pgMgXsPg_DMQaqRnNQ0-LuY9_wbZLfyhtd1AK-dHPKPY0dbbf0NGYarTXeOR_HmvMmIsL2aJfqgJdqNlIiJvykHpHJvBXn2WGzCPYEpqdAMMD1P2oLIAFqOfihA0D2LYDgkWqNNSRMGbgAX8bNyh0eoNTuJRNuJhb0Zrtq47UOYgywGwar4HksHClhBf7zY5IQWEGuYsjIePty3wSlYfcLPgDsR-M9Yf4_bjNxeH8oQWPhmP24hrGLL-X_4pSe3k8FQqWbhnggBwOJkplbFp4JQVr2OxMEzQWTM0Lt7Ux3OW5Ci85Tzb1krBOJfVQPcv6MCO0DoZ1F59GLUiiBUbKqrsWY-aX0RBL_GMb3irE9x3SXyOPh9FMcKcXTqdr_xedAlN76YSE6Pf6Q_nZyqlFDjSlMqfMlT4FNsr8Csiwk9XxhLCSnSt22BX2LjNU_ga727mzKE3TuuOIhC3vJhu93zr6jtoOpB0wtlKOSpcBUJoiKJ74Ji93JRtn5PlG2JleBmX5y5D6iJjGgA6ozXE-jUkXkTsWE_SU8qm8jOwojhR-gOba7-ImQPBmIu97dXCFW6iGnq9FY_ScixiGidGXgVjYy5e7TdyaYrICzvHz-vTKuqQxPvAVEdbudEJKu_Rke4v6_NDjvfkJPXXNRf9UDElyTrpf9j9GTRVijuTmUjGzPzCWzwirYhVxMWmSqnDmGNcYhUEwpMESBQMVviTQpWD4rPsgTGRpWmY791u1uRsqLKsEz_7pn3TwekS6jOk86sTjtYtVEAPgyPsQxHHR7rlpQNcytGlX41wjgnZldPCl3frfMzyKuVvRuf_O_Xl0DxNTdCsMmMeqcLAnzu92k8W_]--></g></svg>