<?xml version="1.0" encoding="us-ascii" standalone="no"?><svg xmlns="http://www.w3.org/2000/svg" xmlns:xlink="http://www.w3.org/1999/xlink" contentStyleType="text/css" height="542px" preserveAspectRatio="none" style="width:1708px;height:542px;background:#FFFFFF;" version="1.1" viewBox="0 0 1708 542" width="1708px" zoomAndPan="magnify"><defs/><g><!--class CurlContext--><g id="elem_CurlContext"><rect codeLine="7" fill="#F1F1F1" height="99.4844" id="CurlContext" rx="2.5" ry="2.5" style="stroke:#181818;stroke-width:0.5;" width="170" x="500.98" y="7"/><text fill="#000000" font-family="sans-serif" font-size="14" lengthAdjust="spacing" textLength="81" x="545.48" y="24.9951">CurlContext</text><line style="stroke:#181818;stroke-width:0.5;" x1="501.98" x2="669.98" y1="33.2969" y2="33.2969"/><ellipse cx="511.98" cy="46.9453" fill="#84BE84" rx="3" ry="3" style="stroke:#038048;stroke-width:1.0;"/><text fill="#000000" font-family="sans-serif" font-size="14" lengthAdjust="spacing" textLength="30" x="520.98" y="50.292">init()</text><ellipse cx="511.98" cy="63.2422" fill="#84BE84" rx="3" ry="3" style="stroke:#038048;stroke-width:1.0;"/><text fill="#000000" font-family="sans-serif" font-size="14" lengthAdjust="spacing" textLength="29" x="520.98" y="66.5889">fini()</text><ellipse cx="511.98" cy="79.5391" fill="#84BE84" rx="3" ry="3" style="stroke:#038048;stroke-width:1.0;"/><text fill="#000000" font-family="sans-serif" font-size="14" lengthAdjust="spacing" textLength="144" x="520.98" y="82.8857">get_handle(): CURL *</text><ellipse cx="511.98" cy="95.8359" fill="#84BE84" rx="3" ry="3" style="stroke:#038048;stroke-width:1.0;"/><text fill="#000000" font-family="sans-serif" font-size="14" lengthAdjust="spacing" textLength="66" x="520.98" y="99.1826">execute()</text></g><!--class CurlExecutor--><g id="elem_CurlExecutor"><rect codeLine="14" fill="#F1F1F1" height="66.8906" id="CurlExecutor" rx="2.5" ry="2.5" style="stroke:#181818;stroke-width:0.5;" width="114" x="528.98" y="166"/><text fill="#000000" font-family="sans-serif" font-size="14" lengthAdjust="spacing" textLength="88" x="541.98" y="183.9951">CurlExecutor</text><line style="stroke:#181818;stroke-width:0.5;" x1="529.98" x2="641.98" y1="192.2969" y2="192.2969"/><ellipse cx="539.98" cy="205.9453" fill="#84BE84" rx="3" ry="3" style="stroke:#038048;stroke-width:1.0;"/><text fill="#000000" font-family="sans-serif" font-size="14" lengthAdjust="spacing" textLength="30" x="548.98" y="209.292">init()</text><polygon fill="#FFFF44" points="539.98,217.2422,543.98,221.2422,539.98,225.2422,535.98,221.2422" style="stroke:#B38D22;stroke-width:1.0;"/><text fill="#000000" font-family="sans-serif" font-size="14" font-style="italic" lengthAdjust="spacing" textLength="88" x="548.98" y="225.5889">init_options()</text></g><!--class EmailSender--><g id="elem_EmailSender"><rect codeLine="21" fill="#F1F1F1" height="66.8906" id="EmailSender" rx="2.5" ry="2.5" style="stroke:#181818;stroke-width:0.5;" width="458" x="35.98" y="166"/><text fill="#000000" font-family="sans-serif" font-size="14" lengthAdjust="spacing" textLength="86" x="221.98" y="183.9951">EmailSender</text><line style="stroke:#181818;stroke-width:0.5;" x1="36.98" x2="492.98" y1="192.2969" y2="192.2969"/><ellipse cx="46.98" cy="205.9453" fill="#84BE84" rx="3" ry="3" style="stroke:#038048;stroke-width:1.0;"/><text fill="#000000" font-family="sans-serif" font-size="14" font-style="italic" lengthAdjust="spacing" textLength="356" x="55.98" y="209.292">send(EmailContent, optional&lt;EmailHeaders&gt;): bool</text><ellipse cx="46.98" cy="222.2422" fill="#84BE84" rx="3" ry="3" style="stroke:#038048;stroke-width:1.0;"/><text fill="#000000" font-family="sans-serif" font-size="14" font-style="italic" lengthAdjust="spacing" textLength="432" x="55.98" y="225.5889">reply(EmailContent, EmailData, optional&lt;EmailHeaders&gt;): bool</text></g><!--class CurlEmailSender--><g id="elem_CurlEmailSender"><rect codeLine="26" fill="#F1F1F1" height="83.1875" id="CurlEmailSender" rx="2.5" ry="2.5" style="stroke:#181818;stroke-width:0.5;" width="458" x="57.98" y="309.5"/><text fill="#000000" font-family="sans-serif" font-size="14" lengthAdjust="spacing" textLength="113" x="230.48" y="327.4951">CurlEmailSender</text><line style="stroke:#181818;stroke-width:0.5;" x1="58.98" x2="514.98" y1="335.7969" y2="335.7969"/><ellipse cx="68.98" cy="349.4453" fill="#84BE84" rx="3" ry="3" style="stroke:#038048;stroke-width:1.0;"/><text fill="#000000" font-family="sans-serif" font-size="14" font-style="italic" lengthAdjust="spacing" textLength="356" x="77.98" y="352.792">send(EmailContent, optional&lt;EmailHeaders&gt;): bool</text><ellipse cx="68.98" cy="365.7422" fill="#84BE84" rx="3" ry="3" style="stroke:#038048;stroke-width:1.0;"/><text fill="#000000" font-family="sans-serif" font-size="14" font-style="italic" lengthAdjust="spacing" textLength="432" x="77.98" y="369.0889">reply(EmailContent, EmailData, optional&lt;EmailHeaders&gt;): bool</text><polygon fill="#FFFF44" points="68.98,377.0391,72.98,381.0391,68.98,385.0391,64.98,381.0391" style="stroke:#B38D22;stroke-width:1.0;"/><text fill="#000000" font-family="sans-serif" font-size="14" font-style="italic" lengthAdjust="spacing" textLength="88" x="77.98" y="385.3857">init_options()</text></g><!--class EmailReceiver--><g id="elem_EmailReceiver"><rect codeLine="35" fill="#F1F1F1" height="66.8906" id="EmailReceiver" rx="2.5" ry="2.5" style="stroke:#181818;stroke-width:0.5;" width="451" x="678.48" y="166"/><text fill="#000000" font-family="sans-serif" font-size="14" lengthAdjust="spacing" textLength="96" x="855.98" y="183.9951">EmailReceiver</text><line style="stroke:#181818;stroke-width:0.5;" x1="679.48" x2="1128.48" y1="192.2969" y2="192.2969"/><ellipse cx="689.48" cy="205.9453" fill="#84BE84" rx="3" ry="3" style="stroke:#038048;stroke-width:1.0;"/><text fill="#000000" font-family="sans-serif" font-size="14" font-style="italic" lengthAdjust="spacing" textLength="425" x="698.48" y="209.292">get_email(nanoseconds polling_period): optional&lt;EmailData&gt;</text><ellipse cx="689.48" cy="222.2422" fill="#84BE84" rx="3" ry="3" style="stroke:#038048;stroke-width:1.0;"/><text fill="#000000" font-family="sans-serif" font-size="14" lengthAdjust="spacing" textLength="79" x="698.48" y="225.5889">shutdown()</text></g><!--class CurlEmailReceiver--><g id="elem_CurlEmailReceiver"><rect codeLine="39" fill="#F1F1F1" height="115.7813" id="CurlEmailReceiver" rx="2.5" ry="2.5" style="stroke:#181818;stroke-width:0.5;" width="664" x="550.98" y="293"/><text fill="#000000" font-family="sans-serif" font-size="14" lengthAdjust="spacing" textLength="123" x="821.48" y="310.9951">CurlEmailReceiver</text><line style="stroke:#181818;stroke-width:0.5;" x1="551.98" x2="1213.98" y1="319.2969" y2="319.2969"/><ellipse cx="561.98" cy="332.9453" fill="#84BE84" rx="3" ry="3" style="stroke:#038048;stroke-width:1.0;"/><text fill="#000000" font-family="sans-serif" font-size="14" lengthAdjust="spacing" textLength="496" x="570.98" y="336.292">get_email(nanoseconds polling_period): optional&lt;EmailData&gt; {abstract</text><polygon fill="#FFFF44" points="561.98,344.2422,565.98,348.2422,561.98,352.2422,557.98,348.2422" style="stroke:#B38D22;stroke-width:1.0;"/><text fill="#000000" font-family="sans-serif" font-size="14" font-style="italic" lengthAdjust="spacing" textLength="88" x="570.98" y="352.5889">init_options()</text><rect fill="#F24D5C" height="6" style="stroke:#C82930;stroke-width:1.0;" width="6" x="558.98" y="362.5391"/><text fill="#000000" font-family="sans-serif" font-size="14" lengthAdjust="spacing" textLength="196" x="570.98" y="368.8857">get_nextuid(): optional&lt;int&gt;</text><rect fill="#F24D5C" height="6" style="stroke:#C82930;stroke-width:1.0;" width="6" x="558.98" y="378.8359"/><text fill="#000000" font-family="sans-serif" font-size="14" lengthAdjust="spacing" textLength="315" x="570.98" y="385.1826">get_email_from_uid(int): optional&lt;EmailData&gt;</text><rect fill="#F24D5C" height="6" style="stroke:#C82930;stroke-width:1.0;" width="6" x="558.98" y="395.1328"/><text fill="#000000" font-family="sans-serif" font-size="14" lengthAdjust="spacing" textLength="638" x="570.98" y="401.4795">execute(optional&lt;string&gt;, url_options, optional&lt;string&gt; custom_request): optional&lt;string&gt;</text></g><!--class IntraEmailReceiver--><g id="elem_IntraEmailReceiver"><rect codeLine="50" fill="#F1F1F1" height="91.1875" id="IntraEmailReceiver" rx="2.5" ry="2.5" style="stroke:#181818;stroke-width:0.5;" width="451" x="1250.48" y="305.5"/><text fill="#000000" font-family="sans-serif" font-size="14" lengthAdjust="spacing" textLength="126" x="1412.98" y="323.4951">IntraEmailReceiver</text><line style="stroke:#181818;stroke-width:0.5;" x1="1251.48" x2="1700.48" y1="331.7969" y2="331.7969"/><rect fill="none" height="6" style="stroke:#C82930;stroke-width:1.0;" width="6" x="1258.48" y="342.4453"/><text fill="#000000" font-family="sans-serif" font-size="14" lengthAdjust="spacing" textLength="190" x="1270.48" y="348.792">emails: queue&lt;EmailData&gt;</text><line style="stroke:#181818;stroke-width:0.5;" x1="1251.48" x2="1700.48" y1="356.0938" y2="356.0938"/><ellipse cx="1261.48" cy="369.7422" fill="#84BE84" rx="3" ry="3" style="stroke:#038048;stroke-width:1.0;"/><text fill="#000000" font-family="sans-serif" font-size="14" font-style="italic" lengthAdjust="spacing" textLength="425" x="1270.48" y="373.0889">get_email(nanoseconds polling_period): optional&lt;EmailData&gt;</text><ellipse cx="1261.48" cy="386.0391" fill="#84BE84" rx="3" ry="3" style="stroke:#038048;stroke-width:1.0;"/><text fill="#000000" font-family="sans-serif" font-size="14" lengthAdjust="spacing" textLength="162" x="1270.48" y="389.3857">receive(EmailData data)</text></g><!--class IntraEmailSender--><g id="elem_IntraEmailSender"><rect codeLine="57" fill="#F1F1F1" height="66.8906" id="IntraEmailSender" rx="2.5" ry="2.5" style="stroke:#181818;stroke-width:0.5;" width="458" x="510.98" y="469"/><text fill="#000000" font-family="sans-serif" font-size="14" lengthAdjust="spacing" textLength="116" x="681.98" y="486.9951">IntraEmailSender</text><line style="stroke:#181818;stroke-width:0.5;" x1="511.98" x2="967.98" y1="495.2969" y2="495.2969"/><ellipse cx="521.98" cy="508.9453" fill="#84BE84" rx="3" ry="3" style="stroke:#038048;stroke-width:1.0;"/><text fill="#000000" font-family="sans-serif" font-size="14" font-style="italic" lengthAdjust="spacing" textLength="356" x="530.98" y="512.292">send(EmailContent, optional&lt;EmailHeaders&gt;): bool</text><ellipse cx="521.98" cy="525.2422" fill="#84BE84" rx="3" ry="3" style="stroke:#038048;stroke-width:1.0;"/><text fill="#000000" font-family="sans-serif" font-size="14" font-style="italic" lengthAdjust="spacing" textLength="432" x="530.98" y="528.5889">reply(EmailContent, EmailData, optional&lt;EmailHeaders&gt;): bool</text></g><!--reverse link CurlContext to CurlExecutor--><g id="link_CurlContext_CurlExecutor"><path codeLine="18" d="M585.98,119.28 C585.98,135.32 585.98,151.98 585.98,165.85 " fill="none" id="CurlContext-backto-CurlExecutor" style="stroke:#181818;stroke-width:1.0;"/><polygon fill="#181818" points="585.98,106.02,581.98,112.02,585.98,118.02,589.98,112.02,585.98,106.02" style="stroke:#181818;stroke-width:1.0;"/></g><!--reverse link EmailSender to CurlEmailSender--><g id="link_EmailSender_CurlEmailSender"><path codeLine="31" d="M272.75,253.33 C275.46,271.7 278.45,292.02 280.99,309.26 " fill="none" id="EmailSender-backto-CurlEmailSender" style="stroke:#181818;stroke-width:1.0;"/><polygon fill="none" points="265.8,254.11,269.81,233.31,279.65,252.08,265.8,254.11" style="stroke:#181818;stroke-width:1.0;"/></g><!--reverse link CurlExecutor to CurlEmailSender--><g id="link_CurlExecutor_CurlEmailSender"><path codeLine="32" d="M510.51,238.24 C467.06,259.96 412.46,287.26 368.09,309.44 " fill="none" id="CurlExecutor-backto-CurlEmailSender" style="stroke:#181818;stroke-width:1.0;"/><polygon fill="none" points="507.67,231.83,528.68,229.15,513.93,244.35,507.67,231.83" style="stroke:#181818;stroke-width:1.0;"/></g><!--reverse link EmailReceiver to CurlEmailReceiver--><g id="link_EmailReceiver_CurlEmailReceiver"><path codeLine="46" d="M896.53,253.57 C894.74,266.3 892.82,279.95 891.01,292.86 " fill="none" id="EmailReceiver-backto-CurlEmailReceiver" style="stroke:#181818;stroke-width:1.0;"/><polygon fill="none" points="889.66,252.14,899.37,233.31,903.52,254.09,889.66,252.14" style="stroke:#181818;stroke-width:1.0;"/></g><!--reverse link CurlExecutor to CurlEmailReceiver--><g id="link_CurlExecutor_CurlEmailReceiver"><path codeLine="47" d="M661.28,238.4 C694.14,254.94 733.36,274.69 769.63,292.94 " fill="none" id="CurlExecutor-backto-CurlEmailReceiver" style="stroke:#181818;stroke-width:1.0;"/><polygon fill="none" points="657.96,244.57,643.25,229.33,664.26,232.06,657.96,244.57" style="stroke:#181818;stroke-width:1.0;"/></g><!--reverse link EmailReceiver to IntraEmailReceiver--><g id="link_EmailReceiver_IntraEmailReceiver"><path codeLine="55" d="M1047.93,238.12 C1126.24,258.59 1223.59,284.03 1305.66,305.48 " fill="none" id="EmailReceiver-backto-IntraEmailReceiver" style="stroke:#181818;stroke-width:1.0;"/><polygon fill="none" points="1046.03,244.86,1028.45,233.03,1049.57,231.32,1046.03,244.86" style="stroke:#181818;stroke-width:1.0;"/></g><!--reverse link EmailSender to IntraEmailSender--><g id="link_EmailSender_IntraEmailSender"><path codeLine="61" d="M98.02,242.02 C75.11,254.73 54.5,271.33 39.98,293 C11.28,335.83 6,370.23 39.98,409 C71.14,444.55 318.89,470.84 510.91,486.13 " fill="none" id="EmailSender-backto-IntraEmailSender" style="stroke:#181818;stroke-width:1.0;"/><polygon fill="none" points="94.92,235.75,115.93,233.04,101.2,248.26,94.92,235.75" style="stroke:#181818;stroke-width:1.0;"/></g><!--reverse link IntraEmailReceiver to IntraEmailSender--><g id="link_IntraEmailReceiver_IntraEmailSender"><path codeLine="62" d="M1277.01,399.44 C1262.13,402.75 1247.33,405.97 1232.98,409 C1131.16,430.48 1016.97,452.07 924.15,468.97 " fill="none" id="IntraEmailReceiver-backto-IntraEmailSender" style="stroke:#181818;stroke-width:1.0;"/><polygon fill="none" points="1290.1,396.5,1283.3705,393.9089,1278.3904,399.1241,1285.1199,401.7152,1290.1,396.5" style="stroke:#181818;stroke-width:1.0;"/></g><!--link EmailSender to EmailReceiver--><!--SRC=[pLLHQy8m47xlhmZifJhx1qHySOCDzkJOqnWbDgSDnAHBhflY_E-xHbkRMYQ33NmfwTtb-xwxBsbpAO31ki0juuXMBae45-Mdw1emD-8OogJD54HHb2dk79kLLisCHjWWsqMCiLkf9SO3lrpI-hXS0QOvrq91F1YpsSlyYGrz0ZQG4I6LxTkOzpvix1deJRLCJO7IQ1SFs8ul75gUuPu0scg6IH8WDPBlrrogPz02QdH7Bx4F-yqQH-n0mDN4Xn-0KxMRalI5CQfDMkstKAXj1y2_tN7aly0A9t2rCY-vq5O- -QfjE0MZmE3UYi2hEMGWFvenL4S9gdYikJOECgE5OuLHIkfLMe2LHf3gi9sgnMbt82ulKPXFxGzVP_B_G7fXS9HDAXfDfxUK8cx3IOtJfi3hI9VMhDEgZdBzp7v3VR-QFD6HvEc8KQUra9RvnpJBIeT4OE6z11SG72jgevj1XKRMuP_CRcfgknyrpQ9d_8blsOqPYIcXq-8V7WXxO8sR2YReCUXlzLpiUHjN-favkw5TnL6F4wQlBe1Ah5pb-4h_2G7wBGblR_GD]--></g></svg>