<?xml version="1.0" encoding="us-ascii" standalone="no"?><svg xmlns="http://www.w3.org/2000/svg" xmlns:xlink="http://www.w3.org/1999/xlink" contentStyleType="text/css" height="246px" preserveAspectRatio="none" style="width:808px;height:246px;background:#FFFFFF;" version="1.1" viewBox="0 0 808 246" width="808px" zoomAndPan="magnify"><defs/><g><!--class Context--><g id="elem_Context"><rect codeLine="6" fill="#F1F1F1" height="146.0469" id="Context" rx="2.5" ry="2.5" style="stroke:#181818;stroke-width:0.5;" width="451" x="127.5" y="93"/><text fill="#000000" font-family="sans-serif" font-size="12" font-style="italic" lengthAdjust="spacing" textLength="73" x="316.5" y="109.1387">&#171;Singleton&#187;</text><text fill="#000000" font-family="sans-serif" font-size="14" lengthAdjust="spacing" textLength="54" x="326" y="124.9639">Context</text><line style="stroke:#181818;stroke-width:0.5;" x1="128.5" x2="577.5" y1="133.2656" y2="133.2656"/><ellipse cx="138.5" cy="146.9141" fill="#84BE84" rx="3" ry="3" style="stroke:#038048;stroke-width:1.0;"/><text fill="#000000" font-family="sans-serif" font-size="14" lengthAdjust="spacing" textLength="253" x="147.5" y="150.2607">get_options(): shared_ptr&lt;Options&gt;</text><ellipse cx="138.5" cy="163.2109" fill="#84BE84" rx="3" ry="3" style="stroke:#038048;stroke-width:1.0;"/><text fill="#000000" font-family="sans-serif" font-size="14" lengthAdjust="spacing" textLength="298" x="147.5" y="166.5576">get_receiver(): shared_ptr&lt;EmailReceiver&gt;</text><ellipse cx="138.5" cy="179.5078" fill="#84BE84" rx="3" ry="3" style="stroke:#038048;stroke-width:1.0;"/><text fill="#000000" font-family="sans-serif" font-size="14" lengthAdjust="spacing" textLength="282" x="147.5" y="182.8545">get_sender(): shared_ptr&lt;EmailSender&gt;</text><ellipse cx="138.5" cy="195.8047" fill="#84BE84" rx="3" ry="3" style="stroke:#038048;stroke-width:1.0;"/><text fill="#000000" font-family="sans-serif" font-size="14" lengthAdjust="spacing" textLength="365" x="147.5" y="199.1514">get_polling_manager(): shared_ptr&lt;PollingManager&gt;</text><ellipse cx="138.5" cy="212.1016" fill="#84BE84" rx="3" ry="3" style="stroke:#038048;stroke-width:1.0;"/><text fill="#000000" font-family="sans-serif" font-size="14" lengthAdjust="spacing" textLength="425" x="147.5" y="215.4482">get_subscription_handle(): shared_ptr&lt;SubscriptionHandler&gt;</text><ellipse cx="138.5" cy="228.3984" fill="#84BE84" rx="3" ry="3" style="stroke:#038048;stroke-width:1.0;"/><text fill="#000000" font-family="sans-serif" font-size="14" lengthAdjust="spacing" textLength="353" x="147.5" y="231.7451">get_service_handle(): shared_ptr&lt;ServiceHandler&gt;</text></g><!--class Options--><g id="elem_Options"><rect fill="#F1F1F1" height="26.2969" id="Options" rx="2.5" ry="2.5" style="stroke:#181818;stroke-width:0.5;" width="60" x="7" y="7"/><text fill="#000000" font-family="sans-serif" font-size="14" lengthAdjust="spacing" textLength="54" x="10" y="24.9951">Options</text></g><!--class EmailReceiver--><g id="elem_EmailReceiver"><rect fill="#F1F1F1" height="26.2969" id="EmailReceiver" rx="2.5" ry="2.5" style="stroke:#181818;stroke-width:0.5;" width="102" x="102" y="7"/><text fill="#000000" font-family="sans-serif" font-size="14" lengthAdjust="spacing" textLength="96" x="105" y="24.9951">EmailReceiver</text></g><!--class EmailSender--><g id="elem_EmailSender"><rect fill="#F1F1F1" height="26.2969" id="EmailSender" rx="2.5" ry="2.5" style="stroke:#181818;stroke-width:0.5;" width="92" x="239" y="7"/><text fill="#000000" font-family="sans-serif" font-size="14" lengthAdjust="spacing" textLength="86" x="242" y="24.9951">EmailSender</text></g><!--class PollingManager--><g id="elem_PollingManager"><rect fill="#F1F1F1" height="26.2969" id="PollingManager" rx="2.5" ry="2.5" style="stroke:#181818;stroke-width:0.5;" width="111" x="366.5" y="7"/><text fill="#000000" font-family="sans-serif" font-size="14" lengthAdjust="spacing" textLength="105" x="369.5" y="24.9951">PollingManager</text></g><!--class SubscriptionHandler--><g id="elem_SubscriptionHandler"><rect fill="#F1F1F1" height="26.2969" id="SubscriptionHandler" rx="2.5" ry="2.5" style="stroke:#181818;stroke-width:0.5;" width="145" x="512.5" y="7"/><text fill="#000000" font-family="sans-serif" font-size="14" lengthAdjust="spacing" textLength="139" x="515.5" y="24.9951">SubscriptionHandler</text></g><!--class ServiceHandler--><g id="elem_ServiceHandler"><rect fill="#F1F1F1" height="26.2969" id="ServiceHandler" rx="2.5" ry="2.5" style="stroke:#181818;stroke-width:0.5;" width="109" x="692.5" y="7"/><text fill="#000000" font-family="sans-serif" font-size="14" lengthAdjust="spacing" textLength="103" x="695.5" y="24.9951">ServiceHandler</text></g><!--reverse link Options to Context--><g id="link_Options_Context"><path codeLine="14" d="M75.5,38.54 C105.85,52.38 150.36,72.66 194.87,92.94 " fill="none" id="Options-backto-Context" style="stroke:#181818;stroke-width:1.0;"/><polygon fill="#181818" points="63.4,33.03,67.2031,39.1567,74.3212,38.0026,70.5181,31.8759,63.4,33.03" style="stroke:#181818;stroke-width:1.0;"/></g><!--reverse link EmailReceiver to Context--><g id="link_EmailReceiver_Context"><path codeLine="15" d="M180.5,40.8 C199.51,54.49 226.08,73.62 252.68,92.77 " fill="none" id="EmailReceiver-backto-Context" style="stroke:#181818;stroke-width:1.0;"/><polygon fill="#181818" points="169.71,33.03,172.2425,39.7818,179.4489,40.041,176.9164,33.2892,169.71,33.03" style="stroke:#181818;stroke-width:1.0;"/></g><!--reverse link EmailSender to Context--><g id="link_EmailSender_Context"><path codeLine="16" d="M296.35,45.04 C302.6,58.27 310.72,75.46 318.85,92.68 " fill="none" id="EmailSender-backto-Context" style="stroke:#181818;stroke-width:1.0;"/><polygon fill="#181818" points="290.8,33.28,289.7476,40.4139,295.928,44.1291,296.9804,36.9952,290.8,33.28" style="stroke:#181818;stroke-width:1.0;"/></g><!--reverse link PollingManager to Context--><g id="link_PollingManager_Context"><path codeLine="17" d="M410.48,45.04 C404.14,58.27 395.9,75.46 387.65,92.68 " fill="none" id="PollingManager-backto-Context" style="stroke:#181818;stroke-width:1.0;"/><polygon fill="#181818" points="416.12,33.28,409.9161,36.9558,410.9229,44.0962,417.1269,40.4205,416.12,33.28" style="stroke:#181818;stroke-width:1.0;"/></g><!--reverse link SubscriptionHandler to Context--><g id="link_SubscriptionHandler_Context"><path codeLine="18" d="M554.31,40.05 C532.11,53.83 500.61,73.38 469.09,92.94 " fill="none" id="SubscriptionHandler-backto-Context" style="stroke:#181818;stroke-width:1.0;"/><polygon fill="#181818" points="565.62,33.03,558.4127,32.797,555.4255,39.3603,562.6329,39.5933,565.62,33.03" style="stroke:#181818;stroke-width:1.0;"/></g><!--reverse link ServiceHandler to Context--><g id="link_ServiceHandler_Context"><path codeLine="19" d="M701.5,37.63 C663.63,51.47 606.9,72.2 550.16,92.94 " fill="none" id="ServiceHandler-backto-Context" style="stroke:#181818;stroke-width:1.0;"/><polygon fill="#181818" points="714.09,33.03,707.0806,31.3364,702.8214,37.1552,709.8308,38.8488,714.09,33.03" style="stroke:#181818;stroke-width:1.0;"/></g><!--SRC=[TP1DQiCm48NtEiKiavPS81XlIY6RaX0VmCZIO0t8af769Y7axYsM6qVvsRxlU-AD36a4x7e-WsGEr0oCKPWbxP2DrtEaA2YBGYWhOuGlxnXF34LHaMijidTb2HS109yjSkrx9k_YQhs5Q6H0NVSSYdrAoviMK26D61wyxqwIFSviiICw_Tgj9hAOlRVsRrVTIIVRfyeXqPy4xzuVcgW2JIDh8vss-D2ixepT96JpmaWAtpGJl9MkOluC-DXi_hzJP8S_atHcbkUtPEZ5s9ndapBq2m00]--></g></svg>